<?xml version="1.0" encoding="UTF-8"?>
<svg width="25px" height="25px" viewBox="0 0 25 25" version="1.1" xmlns="http://www.w3.org/2000/svg" xmlns:xlink="http://www.w3.org/1999/xlink">
    <!-- Generator: Sketch 50.2 (55047) - http://www.bohemiancoding.com/sketch -->
    <title>Combined Shape</title>
    <desc>Created with Sketch.</desc>
    <defs></defs>
    <g id="Page-1" stroke="none" stroke-width="1" fill="none" fill-rule="evenodd">
        <g id="Modale-Mail" transform="translate(-974.000000, -393.000000)" fill="#FFFFFF">
            <path d="M989.224464,405.5 L998.435745,414.711282 C999.188085,415.463621 999.188085,416.683405 998.435745,417.435745 C997.683405,418.188085 996.463621,418.188085 995.711282,417.435745 L986.5,408.224464 L977.288718,417.435745 C976.536379,418.188085 975.316595,418.188085 974.564255,417.435745 C973.811915,416.683405 973.811915,415.463621 974.564255,414.711282 L983.775536,405.5 L974.564255,396.288718 C973.811915,395.536379 973.811915,394.316595 974.564255,393.564255 C975.316595,392.811915 976.536379,392.811915 977.288718,393.564255 L986.5,402.775536 L995.711282,393.564255 C996.463621,392.811915 997.683405,392.811915 998.435745,393.564255 C999.188085,394.316595 999.188085,395.536379 998.435745,396.288718 L989.224464,405.5 Z" id="Combined-Shape"></path>
        </g>
    </g>
</svg>