<svg xmlns="http://www.w3.org/2000/svg" xmlns:xlink="http://www.w3.org/1999/xlink" width="254" height="44" viewBox="0 0 254 44">
    <defs>
        <rect id="b" width="250" height="40" rx="2"/>
        <filter id="a" width="103.2%" x="-1.6%" y="-5%" filterUnits="objectBoundingBox">
            <feOffset dy="2" in="SourceAlpha" result="shadowOffsetOuter1"/>
            <feGaussianBlur in="shadowOffsetOuter1" result="shadowBlurOuter1" stdDeviation="1"/>
            <feColorMatrix in="shadowBlurOuter1" values="0 0 0 0 0 0 0 0 0 0 0 0 0 0 0 0 0 0 0.24 0"/>
        </filter>
    </defs>
    <g fill="none" fill-rule="evenodd">
        <g transform="translate(2)">
            <use fill="#000" filter="url(#a)" xlink:href="#b"/>
            <use fill="#757575" xlink:href="#b"/>
        </g>
        <path fill="#FFF" d="M15.859 15.006a.968.968 0 0 1 .773.274l7.58 7.289c.348.336 1.194.337 1.545 0l7.61-7.289a.972.972 0 0 1 1.344-.02.902.902 0 0 1 .02 1.304l-.027.027-4.8 4.595 4.77 4.207c.39.342.42.926.067 1.303a.973.973 0 0 1-1.345.065l-4.845-4.264-1.442 1.383c-1.166 1.119-3.07 1.122-4.235 0l-1.442-1.383-4.83 4.264a.973.973 0 0 1-1.345-.065.903.903 0 0 1 .067-1.303L20.08 21.2l-4.785-4.61a.903.903 0 0 1-.032-1.304.964.964 0 0 1 .596-.28zM13.8 11c-1.551 0-2.8 1.274-2.8 2.857v14.286C11 29.726 12.249 31 13.8 31h22.4c1.551 0 2.8-1.274 2.8-2.857V13.857C39 12.274 37.751 11 36.2 11H13.8z"/>
        <text fill="#FFF" font-family="Poppins-SemiBold, Poppins" font-size="13" font-weight="500" transform="translate(2)">
            <tspan x="54" y="24">Continuer par mail</tspan>
        </text>
    </g>
</svg>
