<svg xmlns="http://www.w3.org/2000/svg" xmlns:xlink="http://www.w3.org/1999/xlink" width="254" height="44" viewBox="0 0 254 44">
    <defs>
        <rect id="b" width="250" height="40" rx="2"/>
        <filter id="a" width="103.2%" x="-1.6%" y="-5%" filterUnits="objectBoundingBox">
            <feOffset dy="2" in="SourceAlpha" result="shadowOffsetOuter1"/>
            <feGaussianBlur in="shadowOffsetOuter1" result="shadowBlurOuter1" stdDeviation="1"/>
            <feColorMatrix in="shadowBlurOuter1" values="0 0 0 0 0 0 0 0 0 0 0 0 0 0 0 0 0 0 0.24 0"/>
        </filter>
    </defs>
    <g fill="none" fill-rule="evenodd">
        <g transform="translate(2)">
            <use fill="#000" filter="url(#a)" xlink:href="#b"/>
            <use fill="#00ACED" xlink:href="#b"/>
        </g>
        <path fill="#FFF" fill-rule="nonzero" d="M18.853 31c9.434 0 14.596-8.082 14.596-15.078 0-.228 0-.455-.01-.682 1-.744 1.87-1.685 2.561-2.75-.92.424-1.91.703-2.951.838a5.304 5.304 0 0 0 2.26-2.935c-.99.61-2.09 1.044-3.26 1.281A5.045 5.045 0 0 0 28.306 10c-2.831 0-5.132 2.377-5.132 5.302 0 .413.05.816.13 1.209-4.262-.217-8.043-2.336-10.574-5.54a5.436 5.436 0 0 0-.69 2.667c0 1.84.91 3.462 2.28 4.413a5.063 5.063 0 0 1-2.32-.662v.073c0 2.563 1.77 4.712 4.111 5.198-.43.124-.88.186-1.35.186-.33 0-.65-.031-.96-.093.65 2.108 2.55 3.638 4.791 3.68a10.082 10.082 0 0 1-7.593 2.2A14.254 14.254 0 0 0 18.853 31"/>
        <text fill="#FFF" font-family="Poppins-SemiBold, Poppins" font-size="13" font-weight="500" transform="translate(2)">
            <tspan x="54" y="24">Continuer avec twitter</tspan>
        </text>
    </g>
</svg>
