<svg xmlns="http://www.w3.org/2000/svg" xmlns:xlink="http://www.w3.org/1999/xlink" width="254" height="46" viewBox="0 0 254 46">
    <defs>
        <rect id="b" width="250" height="40" rx="2"/>
        <filter id="a" width="104.8%" height="130%" x="-2.4%" filterUnits="objectBoundingBox">
            <feOffset dy="2" in="SourceAlpha" result="shadowOffsetOuter1"/>
            <feGaussianBlur in="shadowOffsetOuter1" result="shadowBlurOuter1" stdDeviation="1"/>
            <feColorMatrix in="shadowBlurOuter1" result="shadowMatrixOuter1" values="0 0 0 0 0 0 0 0 0 0 0 0 0 0 0 0 0 0 0.24 0"/>
            <feOffset in="SourceAlpha" result="shadowOffsetOuter2"/>
            <feGaussianBlur in="shadowOffsetOuter2" result="shadowBlurOuter2" stdDeviation="1"/>
            <feColorMatrix in="shadowBlurOuter2" result="shadowMatrixOuter2" values="0 0 0 0 0 0 0 0 0 0 0 0 0 0 0 0 0 0 0.12 0"/>
            <feMerge>
                <feMergeNode in="shadowMatrixOuter1"/>
                <feMergeNode in="shadowMatrixOuter2"/>
            </feMerge>
        </filter>
    </defs>
    <g fill="none" fill-rule="evenodd">
        <g transform="translate(2 2)">
            <use fill="#000" filter="url(#a)" xlink:href="#b"/>
            <use fill="#FFF" xlink:href="#b"/>
        </g>
        <text fill="#000" fill-opacity=".54" font-family="Roboto-Medium, Roboto" font-size="14" font-weight="400" letter-spacing=".219" transform="translate(2 2)">
            <tspan x="50" y="25">Sign in with Google</tspan>
        </text>
        <g fill="#000">
            <path fill="#EA4335" d="M22 16.48c1.69 0 2.83.73 3.48 1.34l2.54-2.48C26.46 13.89 24.43 13 22 13c-3.52 0-6.56 2.02-8.04 4.96l2.91 2.26c.73-2.17 2.75-3.74 5.13-3.74z"/>
            <path fill="#4285F4" d="M30.64 22.2c0-.74-.06-1.28-.19-1.84H22v3.34h4.96c-.1.83-.64 2.08-1.84 2.92l2.84 2.2c1.7-1.57 2.68-3.88 2.68-6.62z"/>
            <path fill="#FBBC05" d="M16.88 23.78a5.54 5.54 0 0 1-.3-1.78c0-.62.11-1.22.29-1.78l-2.91-2.26A9.008 9.008 0 0 0 13 22c0 1.45.35 2.82.96 4.04l2.92-2.26z"/>
            <path fill="#34A853" d="M22 31c2.43 0 4.47-.8 5.96-2.18l-2.84-2.2c-.76.53-1.78.9-3.12.9-2.38 0-4.4-1.57-5.12-3.74l-2.91 2.26C15.45 28.98 18.48 31 22 31z"/>
            <path fill="none" d="M13 13h18v18H13z"/>
        </g>
    </g>
</svg>
