<svg xmlns="http://www.w3.org/2000/svg" width="50" height="50" viewBox="0 0 50 50">
    <g fill="none" fill-rule="evenodd">
        <circle cx="25" cy="25" r="25" fill="#7547E8"/>
        <path fill="#FFF" fill-rule="nonzero" d="M20.454 37.749c11.271 0 17.438-9.347 17.438-17.438 0-.263 0-.526-.012-.79a12.486 12.486 0 0 0 3.06-3.178c-1.1.49-2.283.812-3.526.968a6.166 6.166 0 0 0 2.702-3.395 12.191 12.191 0 0 1-3.897 1.482 6.117 6.117 0 0 0-4.47-1.936 6.136 6.136 0 0 0-6.131 6.132c0 .478.06.944.155 1.398-5.092-.251-9.61-2.701-12.634-6.406a6.13 6.13 0 0 0-.824 3.083 6.145 6.145 0 0 0 2.725 5.104 6.2 6.2 0 0 1-2.773-.765v.084a6.142 6.142 0 0 0 4.912 6.012 5.975 5.975 0 0 1-1.613.215c-.395 0-.777-.036-1.148-.108a6.129 6.129 0 0 0 5.725 4.255 12.293 12.293 0 0 1-7.613 2.63c-.49 0-.98-.024-1.458-.084a17.434 17.434 0 0 0 9.382 2.737"/>
    </g>
</svg>
