<svg xmlns="http://www.w3.org/2000/svg" width="50" height="50" viewBox="0 0 50 50">
    <g fill="none" fill-rule="evenodd">
        <circle cx="25" cy="25" r="25" fill="#7547E8"/>
        <path fill="#FEFEFE" d="M34.86 34.86h-4.152v-6.498c0-1.55-.027-3.544-2.158-3.544-2.161 0-2.49 1.69-2.49 3.433v6.609h-4.148V21.497h3.98v1.827h.057c.554-1.05 1.909-2.158 3.93-2.158 4.205 0 4.982 2.766 4.982 6.365v7.329zM17.23 19.672a2.407 2.407 0 1 1 0-4.817 2.409 2.409 0 0 1 0 4.817zm-2.08 15.188h4.157V21.497H15.15V34.86zM36.929 11H13.066c-1.14 0-2.066.904-2.066 2.02v23.96c0 1.115.926 2.02 2.066 2.02h23.863C38.07 39 39 38.096 39 36.98V13.02c0-1.116-.93-2.02-2.071-2.02z"/>
    </g>
</svg>
