<svg xmlns="http://www.w3.org/2000/svg" width="50" height="50" viewBox="0 0 50 50">
    <g fill="none" fill-rule="evenodd">
        <circle cx="25" cy="25" r="25" fill="#7547E8"/>
        <path fill="#FFFFFE" d="M37.455 11h-24.91c-.853 0-1.545.692-1.545 1.545v24.91c0 .853.692 1.545 1.545 1.545h13.41V28.157h-3.648v-4.226h3.649v-3.116c0-3.617 2.209-5.586 5.435-5.586 1.545 0 2.873.115 3.26.166v3.78l-2.237.001c-1.755 0-2.095.834-2.095 2.057v2.698h4.185l-.545 4.226h-3.64V39h7.136c.853 0 1.545-.692 1.545-1.545v-24.91c0-.853-.692-1.545-1.545-1.545"/>
    </g>
</svg>
