<?xml version="1.0" encoding="UTF-8"?>
<svg width="28px" height="20px" viewBox="0 0 28 20" version="1.1" xmlns="http://www.w3.org/2000/svg" xmlns:xlink="http://www.w3.org/1999/xlink">
    <!-- Generator: Sketch 50.2 (55047) - http://www.bohemiancoding.com/sketch -->
    <title>Fill 1</title>
    <desc>Created with Sketch.</desc>
    <defs></defs>
    <g id="Page-1" stroke="none" stroke-width="1" fill="none" fill-rule="evenodd">
        <g id="Landing-07/06" transform="translate(-989.000000, -1569.000000)" fill="#FFFFFF">
            <g id="Login" transform="translate(980.000000, 1345.000000)">
                <g id="Continuer-par-mail" transform="translate(0.000000, 213.000000)">
                    <path d="M13.8590343,15.0061533 C14.1462822,14.9789554 14.4302011,15.0799102 14.6318453,15.279976 L22.2110996,22.569007 C22.5601724,22.9046012 23.406222,22.9055231 23.7567215,22.569007 L31.3664127,15.279976 C31.7321306,14.914418 32.3346854,14.9056594 32.7113415,15.2606147 C33.0884733,15.6151091 33.0970336,16.198711 32.7313157,16.5642689 C32.7222798,16.5730276 32.7132438,16.5817862 32.7037323,16.5910058 L27.9032684,21.1860641 L32.6742466,25.3925155 C33.0642189,25.7345633 33.0937046,26.3186262 32.7408272,26.6961697 C32.3879499,27.074635 31.7853951,27.1032158 31.3958984,26.761168 L26.5507304,22.497094 L25.1092596,23.8800369 C23.9431473,24.9988377 22.0398922,25.0016036 20.87378,23.8800369 L19.4323092,22.497094 L14.601884,26.761168 C14.2123873,27.1032158 13.6103081,27.074635 13.2569551,26.6961697 C12.9040778,26.3186262 12.9340391,25.7345633 13.3240114,25.3925155 L18.0797711,21.2008155 L13.2945257,16.5910058 C12.9145404,16.2392773 12.9002732,15.6556754 13.2631376,15.2868907 C13.4205533,15.1273912 13.6321846,15.0273584 13.8590343,15.0061533 Z M11.8,11 C10.2488,11 9,12.2742857 9,13.8571429 L9,28.1428571 C9,29.7257143 10.2488,31 11.8,31 L34.2,31 C35.7512,31 37,29.7257143 37,28.1428571 L37,13.8571429 C37,12.2742857 35.7512,11 34.2,11 L11.8,11 Z" id="Fill-1"></path>
                </g>
            </g>
        </g>
    </g>
</svg>