<?xml version="1.0" encoding="UTF-8"?>
<svg width="537px" height="245px" viewBox="0 0 537 245" version="1.1" xmlns="http://www.w3.org/2000/svg" xmlns:xlink="http://www.w3.org/1999/xlink">
    <!-- Generator: Sketch 50.2 (55047) - http://www.bohemiancoding.com/sketch -->
    <title>Group</title>
    <desc>Created with Sketch.</desc>
    <defs></defs>
    <g id="Page-1" stroke="none" stroke-width="1" fill="none" fill-rule="evenodd">
        <g id="Landing-B-V1" transform="translate(-452.000000, -211.000000)" fill="#FFFFFF">
            <g id="Group" transform="translate(452.000000, 211.000000)">
                <path d="M0,6.08950851 C0.0603544941,5.03692479 0.448016053,4.09122594 1.16066335,3.25473557 C1.87098932,2.41824519 2.81576928,2 3.99268192,2 L31.5654004,2 C32.4939311,2 33.452639,2.39036218 34.4415242,3.16411578 C35.4327307,3.94019296 35.9294946,4.91842198 35.9294946,6.09647926 L35.9294946,50.230641 L82.0658627,50.230641 L82.0658627,6.09647926 C82.0658627,4.97883518 82.451203,4.01919483 83.2288474,3.21291105 C84.0018492,2.40430368 84.9976983,2 86.2372868,2 L113.366632,2 C114.599256,2 115.678673,2.31368389 116.609525,2.93175734 C117.531092,3.54983078 118,4.53967773 118,5.90362176 L118,135.910491 C118,137.274436 117.59841,138.294489 116.790589,138.975299 C115.989731,139.658433 114.93817,140 113.647512,140 L86.2372868,140 C84.9976983,140 84.0018492,139.658433 83.2288474,138.975299 C82.451203,138.294489 82.0658627,137.274436 82.0658627,135.910491 L82.0658627,83.1279487 L35.9294946,83.1279487 L35.9294946,135.910491 C35.9294946,137.211699 35.5116558,138.217811 34.6759782,138.931151 C33.8403006,139.644492 32.7098145,140 31.2868412,140 L3.99268192,140 C1.39279602,140 0.0603544941,138.791736 0,136.375208 L0,6.08950851 Z" id="Fill-1"></path>
                <path d="M181,6.07789059 C181,4.84406728 181.421263,3.85422034 182.256806,3.11299692 C183.094677,2.3717735 184.132706,2 185.37322,2 L285.531356,2 C286.648517,2 287.639997,2.3415669 288.508125,3.02005354 C289.378579,3.70086377 289.876647,4.71859373 290,6.07789059 L290,29.1487599 C290,30.2617568 289.611321,31.3282821 288.833963,32.346012 C288.058933,33.3660656 286.958064,33.8749305 285.531356,33.8749305 L253.417633,33.8749305 L253.417633,135.627014 C253.417633,136.742335 253.014989,137.75077 252.209703,138.652321 C251.404416,139.551548 250.352422,140 249.053723,140 L221.757756,140 C220.705763,140 219.71661,139.581755 218.78797,138.742941 C217.85933,137.90645 217.393846,136.867808 217.393846,135.627014 L217.393846,33.8749305 L185.37322,33.8749305 C184.132706,33.8749305 183.094677,33.4729504 182.256806,32.6713138 C181.421263,31.8673536 181,30.6939435 181,29.1487599 L181,6.07789059 Z" id="Fill-3"></path>
                <path d="M350.488693,45.3975855 C349.315999,48.5576603 348.127081,51.9663585 346.919623,55.6190332 C345.7168,59.276355 344.525565,62.9615598 343.35287,66.6792948 C342.180176,70.3947063 340.988941,74.0682932 339.7838,77.6907612 C338.57866,81.3155529 337.389742,84.7079861 336.217048,87.8680608 L364.669953,87.8680608 L350.488693,45.3975855 Z M333.623678,5.62479164 C333.683935,5.25534172 333.883247,4.85103804 334.221613,4.41652776 C334.562297,3.98434106 334.979461,3.58003738 335.473105,3.20826388 C335.969067,2.83881396 336.492839,2.54604233 337.051376,2.32530181 C337.605277,2.10920847 338.12905,2 338.627329,2 L362.354693,2 C363.402238,2 364.299141,2.32530181 365.043083,2.97590544 C365.782391,3.62650907 366.340927,4.20043441 366.709422,4.69535788 L369.029318,9.99313027 L417.689186,135.817548 C418.182831,137.058342 418.08781,138.064454 417.408759,138.838208 C416.732027,139.614285 415.559332,140 413.886041,140 L387.287198,140 C385.866522,140 384.76799,139.737435 383.998554,139.209981 C383.224483,138.682528 382.621913,137.801889 382.188526,136.561095 C380.950939,133.40102 379.748116,130.257211 378.575422,127.127343 C377.398092,124.002122 376.225398,120.858312 375.052703,117.698237 L325.834298,117.698237 C324.661603,120.858312 323.470368,124.002122 322.267545,127.127343 C321.060087,130.257211 319.87117,133.40102 318.698475,136.561095 C317.896593,138.854473 316.318323,140 313.968298,140 L286.630148,140 C285.452818,140 284.479435,139.690963 283.707682,139.068243 C282.933611,138.450169 282.794556,137.523059 283.290518,136.282265 L333.623678,5.62479164 Z" id="Fill-5"></path>
                <path d="M511.346102,40.9559117 C508.176392,38.7266394 504.787437,36.9943091 501.18157,35.7542764 C497.571039,34.5165658 493.71794,33.8965495 489.612943,33.8965495 C484.451376,33.8965495 479.723632,34.8741783 475.436709,36.8247915 C471.142789,38.7754047 467.457622,41.4203434 464.378874,44.7642518 C461.300127,48.1081603 458.890773,52.0256419 457.153147,56.5120523 C455.410855,61.000785 454.540876,65.7844317 454.540876,70.8606705 C454.540876,75.9369092 455.410855,80.7043009 457.153147,85.1628455 C458.890773,89.62139 461.300127,93.5063614 464.378874,96.8177596 C467.457622,100.13148 471.142789,102.746231 475.436709,104.666656 C479.723632,106.584759 484.451376,107.54381 489.612943,107.54381 C491.79139,107.54381 493.951178,107.390548 496.094639,107.081701 C498.242766,106.772854 500.528503,106.368798 502.954182,105.874178 L502.954182,81.540278 C502.954182,80.3652657 503.292378,79.3899591 503.978099,78.6143581 C504.661488,77.8434015 505.687737,77.455601 507.056847,77.455601 L532.430859,77.455601 C533.359148,77.455601 534.355076,77.8248242 535.413978,78.5702371 C536.468216,79.3133279 537,80.3025675 537,81.540278 L537,126.490303 C537,128.162257 536.097367,129.525364 534.294434,130.577302 C531.371956,132.560425 528.136939,134.262567 524.591714,135.683729 C521.048822,137.109534 517.347328,138.284546 513.494228,139.21341 C509.638797,140.142273 505.736717,140.838921 501.785658,141.303352 C497.836931,141.767784 493.997826,142 490.26601,142 C483.672359,142 477.3446,141.164023 471.282732,139.492069 C465.223197,137.822437 459.543841,135.43758 454.26099,132.342142 C448.973474,129.246705 444.171094,125.547506 439.849186,121.244546 C435.524945,116.941586 431.809456,112.174195 428.700387,106.940049 C425.591319,101.710548 423.198292,96.0746688 421.518975,90.0393786 C419.837326,84.0017661 419,77.7017498 419,71.1393295 C419,64.5769092 419.837326,58.2768929 421.518975,52.2392805 C423.198292,46.2039902 425.591319,40.5379231 428.700387,35.2457236 C431.809456,29.9488798 435.524945,25.1373671 439.849186,20.801897 C444.171094,16.4710711 448.973474,12.7695503 454.26099,9.7043009 C459.543841,6.63905151 465.223197,4.25651676 471.282732,2.55437449 C477.3446,0.852232216 483.672359,0 490.26601,0 C497.727309,0 504.773442,1.03800491 511.395082,3.11169256 C518.019054,5.18770237 524.251186,8.17167621 530.096142,12.0729027 C531.155044,12.6929191 531.964382,13.512641 532.521822,14.5343908 C533.083926,15.5561406 532.957978,16.71722 532.14864,18.0153066 L517.039453,39.7483892 C516.227783,40.7399509 515.418446,41.4064105 514.613773,41.7454456 C513.802103,42.0868029 512.715212,41.824399 511.346102,40.9559117" id="Fill-7"></path>
                <polygon id="Fill-9" points="0 244 12 244 12 181 0 181"></polygon>
                <polygon id="Fill-11" points="40 181 48.5815051 181 83.8069377 222.039855 83.8069377 181 96 181 96 244 87.420813 244 52.1953804 202.960145 52.1953804 244 40 244"></polygon>
                <path d="M125.902577,227.215014 C129.493191,231.186284 134.971297,234.165894 140.71674,234.165894 C146.10727,234.165894 149.877645,230.824838 149.877645,226.221038 C149.877645,218.095459 138.204693,217.1038 129.765137,212.138554 C124.82401,209.249305 120.871569,204.914272 120.871569,197.784986 C120.871569,186.499073 131.200922,180 141.615546,180 C147.990153,180 153.917662,181.536145 159.845171,185.956905 L153.560444,194.986098 C151.046093,192.639018 146.821705,190.834106 142.694113,190.834106 C138.112508,190.834106 132.993924,192.817424 132.993924,197.694625 C132.993924,207.893883 162,204.735867 162,226.042632 C162,237.235867 152.032474,245 140.71674,245 C132.277184,245 124.462183,241.478221 118,235.518999 L125.902577,227.215014 Z" id="Fill-12"></path>
                <polygon id="Fill-13" points="225 181 225 191.798746 208.149464 191.798746 208.149464 244 195.852874 244 195.852874 191.798746 179 191.798746 179 181"></polygon>
                <polygon id="Fill-14" points="248 244 260 244 260 181 248 181"></polygon>
                <polygon id="Fill-15" points="329 181 329 191.798746 312.149464 191.798746 312.149464 244 299.852874 244 299.852874 191.798746 283 191.798746 283 181"></polygon>
                <path d="M360.098383,238.508386 C354.8804,233.821284 352,227.151533 352,217.506651 L352,181 L364.147575,181 L364.147575,218.406593 C364.147575,224.176403 365.679014,227.692886 368.289161,230.124349 C370.989392,232.738577 374.772949,234.182186 379.00231,234.182186 C383.231671,234.182186 387.008298,232.738577 389.710839,230.124349 C392.318676,227.692886 393.850115,224.176403 393.850115,218.406593 L393.850115,181 L406,181 L406,217.506651 C406,227.151533 403.121909,233.821284 397.899307,238.508386 C393.039353,242.8369 386.107451,245 379.00231,245 C371.890239,245 364.960647,242.8369 360.098383,238.508386" id="Fill-16"></path>
                <polygon id="Fill-17" points="475 181 475 191.798746 458.148607 191.798746 458.148607 244 445.851393 244 445.851393 191.798746 429 191.798746 429 181"></polygon>
                <polygon id="Fill-18" points="510.243509 191.798746 510.243509 204.849637 529.744673 204.849637 529.744673 215.650693 510.243509 215.650693 510.243509 233.198944 537 233.198944 537 244 498 244 498 181 536.092211 181 536.092211 191.798746"></polygon>
            </g>
        </g>
    </g>
</svg>